<svg viewBox="0 0 20.9999 21" xmlns="http://www.w3.org/2000/svg" xmlns:xlink="http://www.w3.org/1999/xlink" width="20.999939" height="21" fill="none" customFrame="#000000">
	<g id="编组">
		<path id="差集" d="M10.5 0L10.6733 0.00140414C16.3993 0.0942427 21 4.76567 20.9999 10.5081L20.9986 10.6733C20.9057 16.3993 16.2343 21 10.4919 21L10.3267 20.9986C4.60064 20.9058 -3.28147e-05 16.2343 0 10.4919L0.00137133 10.3267C0.0942099 4.60068 4.76563 0 10.5 0ZM13.4998 7.80762C13.4998 6.15076 12.1566 4.80762 10.4998 4.80762C8.84294 4.80762 7.49979 6.15076 7.49979 7.80762C7.49979 9.46447 8.84294 10.8076 10.4998 10.8076C12.1566 10.8076 13.4998 9.46447 13.4998 7.80762ZM10.4999 19C12.942 19 15.1436 17.9701 16.694 16.3209C16.0479 13.4961 13.5195 11.3887 10.4988 11.3887C7.47881 11.3887 4.95082 13.4952 4.30403 16.3191C5.85453 17.9693 8.05686 19 10.4999 19Z" fill="rgb(10,89,247)" fill-rule="evenodd" />
	</g>
</svg>
